<?xml version="1.0" encoding="UTF-8" standalone="no"?> <svg id="outline" xmlns="http://www.w3.org/2000/svg" viewBox="0 0 340 340"><title>27_Kraken monster</title><path d="M145.9,172.791a48.2,48.2,0,0,0-20.715,32.042A147.249,147.249,0,0,1,94.6,211.348a3.462,3.462,0,0,0,.323,6.908q.163,0,.33-.015a162.565,162.565,0,0,0,40.695-9.78,297.259,297.259,0,0,0,42.823,7.817,3.461,3.461,0,1,0,.8-6.877q-4.017-.465-7.719-.981a41.14,41.14,0,0,1,4.132-20.412c19.885-30.18,7.782-50.941,6.448-53.047a33.905,33.905,0,0,0-9.733-11.9c-.815-.627-1.3-.943-1.3-.943a3.464,3.464,0,0,0-5.052,4.322C171.913,138.746,167.755,157.848,145.9,172.791Zm24.225,11.516c-.041.062-.08.125-.116.19a46.978,46.978,0,0,0-5.146,22.886c-3.964-.631-7.57-1.275-10.778-1.9.028-1.065.083-2.131.2-3.187a27.653,27.653,0,0,1,11.326-19.441,102.652,102.652,0,0,0,9.208-7.482c.243-.223.473-.457.709-.685A72.75,72.75,0,0,1,170.124,184.307Zm5.36-47.689a27.387,27.387,0,0,1-5.343,33.65,95.415,95.415,0,0,1-8.584,6.973,34.581,34.581,0,0,0-14.16,24.318c-.089.831-.144,1.67-.188,2.508-6.635-1.457-10.354-2.542-10.431-2.565a3.474,3.474,0,0,0-2.2.079c-.575.216-1.142.408-1.715.618a41.21,41.21,0,0,1,16.943-23.692C168.42,165.781,175.7,150.012,175.484,136.618Z"/><path d="M332.517,112.9A98.9,98.9,0,0,0,325.2,81.161a92.755,92.755,0,0,0-48.1-50.452c-11.246-5.137-22.955-8.558-43.547-8.558-18.747,0-36.442,9.557-45.321,15.254a50.906,50.906,0,0,1-24.071,8.153c-.985.064-11.711.057-13.172,8.8A10.174,10.174,0,0,0,157.915,65.8a70.16,70.16,0,0,0,7.455,2.051,81.869,81.869,0,0,0,38.748-1.106c9.709-2.626,35.428-7.236,40.673-3.766a7.162,7.162,0,0,1,3.017,7.459,11.3,11.3,0,0,0,2.177,9.441l5.467,6.93a11.4,11.4,0,0,0,10.262,4.237,6.04,6.04,0,0,1,6.238,3.506,63.216,63.216,0,0,1,2.882,8.141,11.036,11.036,0,0,0-5.412,2.947c-3.39,3.345-6.236,8.035-8.461,13.941-2.632,6.986-2.956,13.515-.963,19.407a12.643,12.643,0,0,0,5.713,6.938,76.99,76.99,0,0,1-6.888,7.922,15.066,15.066,0,0,0-1.643-1.4,14.361,14.361,0,0,0-12.808-2.1c-6.327,1.986-12.866,6.007-19.435,11.953-7.7,6.968-12.245,14.807-13.517,23.3a16.742,16.742,0,0,0,1.089,8.876,199.332,199.332,0,0,0-12.83,16.241,17.393,17.393,0,0,0-5.562,1.933c-7.294,4.042-14.349,10.664-20.969,19.683-7.72,10.517-11.344,21.293-10.77,32.031a20.345,20.345,0,0,0,9.8,16.354c.252.152.511.288.768.429a127.688,127.688,0,0,0-.355,15.792,3.576,3.576,0,0,0-4.251.5l-9.355,9.423a14.518,14.518,0,0,1-20.11,0l-9.357-9.424a3.562,3.562,0,0,0-4.913,0l-9.354,9.422a14.52,14.52,0,0,1-20.111,0l-9.351-9.421a3.462,3.462,0,0,0-4.914,0l-9.355,9.424a14.52,14.52,0,0,1-20.11,0l-9.357-9.424a3.562,3.562,0,0,0-4.913,0l-9.356,9.424A14.207,14.207,0,0,1,17.726,310.9H12.563a3.462,3.462,0,1,0,0,6.923h5.163a21.167,21.167,0,0,0,14.968-6.091l6.9-6.949,6.9,6.949a21.437,21.437,0,0,0,29.936,0l6.9-6.949,6.9,6.946a21.438,21.438,0,0,0,29.938,0l6.9-6.947,6.9,6.949a21.437,21.437,0,0,0,29.937,0l6.9-6.948,6.9,6.949a21.437,21.437,0,0,0,29.936,0l6.9-6.949,6.9,6.952a21.437,21.437,0,0,0,29.934,0l6.905-6.953,6.9,6.953a21.435,21.435,0,0,0,29.933,0l6.906-6.953,6.91,6.956a21.159,21.159,0,0,0,14.953,6.089l5.168.019h.014a3.462,3.462,0,0,0,.012-6.923l-5.181-.02a14.2,14.2,0,0,1-10.054-4.044l-9.366-9.429a3.562,3.562,0,0,0-4.912,0L290.2,306.86a14.517,14.517,0,0,1-20.108,0l-9.361-9.426a3.561,3.561,0,0,0-4.912,0l-9.362,9.426a14.517,14.517,0,0,1-20.108,0l-9.361-9.426a3.562,3.562,0,0,0-4.913,0l-9.357,9.424a14.519,14.519,0,0,1-20.109,0l-2.617-2.637a3.492,3.492,0,0,0,0-.369,121.475,121.475,0,0,1-.29-20.438,20.215,20.215,0,0,0,11.506-1.648c6.718-3.091,13.211-8.4,19.3-15.769a49.779,49.779,0,0,0,3.964-5.522,3.462,3.462,0,0,0-5.892-3.635,42.866,42.866,0,0,1-3.411,4.749c-5.419,6.563-11.089,11.236-16.853,13.887a13.4,13.4,0,0,1-19.021-11.483c-.486-9.1,2.689-18.372,9.437-27.565,6.024-8.207,12.33-14.169,18.744-17.724a10.442,10.442,0,0,1,8.848-.638,10.954,10.954,0,0,1,6.481,6.514,3.462,3.462,0,1,0,6.507-2.365,17.869,17.869,0,0,0-10.561-10.633c-.309-.116-.625-.2-.938-.294,4.1-5.525,8.337-10.508,11.425-13.974.041-.046.067-.1.1-.145a3.54,3.54,0,0,0,.218-.3c.059-.092.112-.186.161-.282s.1-.2.14-.307a3.387,3.387,0,0,0,.109-.322c.03-.1.054-.208.074-.315s.036-.221.045-.333.014-.22.013-.332a3.242,3.242,0,0,0-.019-.327,3.115,3.115,0,0,0-.051-.331c-.023-.113-.052-.222-.086-.332s-.067-.2-.108-.3a3.528,3.528,0,0,0-.165-.339c-.029-.051-.046-.107-.077-.157a9.61,9.61,0,0,1-1.327-6.567c1.029-6.87,4.836-13.327,11.316-19.193,5.822-5.269,11.5-8.8,16.862-10.479a7.478,7.478,0,0,1,6.681,1.107,7.773,7.773,0,0,1,3.255,6.231c.114,7.285-1.783,17.61-11.469,25.422-5.092,4.106-10.067,6.747-14.789,7.849A3.462,3.462,0,1,0,231.7,204.3c5.744-1.341,11.653-4.436,17.562-9.2,11.859-9.565,14.183-22.093,14.044-30.919a14.819,14.819,0,0,0-.729-4.311,83.146,83.146,0,0,0,10.508-12.339,12.661,12.661,0,0,0,7.073-2.964,32.072,32.072,0,0,0,8.213-11.645,26.532,26.532,0,0,0,2.2-13.982,3.462,3.462,0,1,0-6.877.8,19.7,19.7,0,0,1-1.649,10.377,25.322,25.322,0,0,1-6.364,9.172,5.7,5.7,0,0,1-9.118-2.526c-1.467-4.335-1.169-9.3.884-14.747,1.87-4.962,4.173-8.815,6.846-11.453a4.215,4.215,0,0,1,4.466-.916,3.458,3.458,0,0,0,3.516-5.816,70,70,0,0,0-3.926-11.944l0-.008A64.639,64.639,0,0,0,267.9,75.14a3.461,3.461,0,1,0-5.2,4.568,50.259,50.259,0,0,1,3.413,4.378c-.4.009-.812.033-1.22.082a4.461,4.461,0,0,1-4-1.652l-5.468-6.93a4.4,4.4,0,0,1-.847-3.678,14.117,14.117,0,0,0-1.257-9.447c12.975,3.082,23.751,10.308,32.129,21.578,15.926,21.417,17.408,50.628,3.778,74.418A130.842,130.842,0,0,1,267.8,186.013c-.057.052-.113.108-.166.164-36.728,39.01-46.081,78.64-47.458,105.016a3.46,3.46,0,0,0,3.276,3.637c.061,0,.122,0,.183,0a3.461,3.461,0,0,0,3.454-3.281c1.317-25.2,10.285-63.095,45.51-100.55a135.787,135.787,0,0,0,22.628-29.1c15-26.18,11.856-57.329-4.228-81.991-16.27-24.947-48.751-25.969-48.782-25.969-14.283,0-29.585,3.327-39.908,6.118a74.921,74.921,0,0,1-35.457,1.026,63.226,63.226,0,0,1-6.717-1.845,3.287,3.287,0,0,1-2.314-3.775c.344-3.3,5.663-2.923,6.782-2.995a57.839,57.839,0,0,0,27.365-9.236c8.241-5.287,24.6-14.158,41.582-14.158,19.406,0,29.949,3.036,40.67,7.933,20.8,9.5,35.758,25.149,44.464,46.509a93.1,93.1,0,0,1,6.913,29.67c0,.1.009.21.02.311.04.366,3.59,37.2-26.614,85.967-11.312,18.263-17.087,37.519-19.8,54.962a2.861,2.861,0,0,0-.191,1.209,184.866,184.866,0,0,0-1.04,44.576,3.462,3.462,0,0,0,3.441,3.123c.114,0,.228-.006.344-.016a3.463,3.463,0,0,0,3.106-3.785,178.5,178.5,0,0,1,.639-40.319,37.035,37.035,0,0,0,18.218-4.789c3.709,2.12,12.424,6.126,25.337,6.126a3.462,3.462,0,0,0,0-6.924c-14.756,0-23.147-5.981-23.216-6.032a3.459,3.459,0,0,0-3.9-.154,30.72,30.72,0,0,1-15.371,4.859,142.021,142.021,0,0,1,13.447-40.56c5.468,2.517,15.056,5.638,29.042,5.638a3.462,3.462,0,1,0,0-6.923c-12.389,0-20.814-2.615-25.694-4.8.5-.851,1-1.7,1.525-2.55C335.757,153.278,332.827,116,332.517,112.9Z"/><path d="M26.679,224.351A98.859,98.859,0,0,1,16.867,289.3c-1.019,1.882-1.962,3.834-2.8,5.8a3.462,3.462,0,1,0,6.366,2.722c.757-1.771,1.606-3.529,2.524-5.224a105.8,105.8,0,0,0,10.532-69.507,206.336,206.336,0,0,0-14.8-47.494,48.667,48.667,0,0,1-1.8-36.337c5.027-14.343,15.812-23.95,32.013-28.542,1.133-.3,27.918-7.179,41.649,15.07,6.089,9.869,5.217,22.541-2.121,30.816-4.572,5.156-10.623,7.77-17.985,7.77a3.528,3.528,0,0,0-.37.02,19.94,19.94,0,0,1-13.341-4.382c-4.828-4.03-7.687-10.624-8.516-19.6A16.941,16.941,0,0,1,62.077,132.8c.1-.019,6.586.05,10.051,3.72,1.695,1.794,2.415,4.2,2.2,7.373a3.461,3.461,0,0,0,3.223,3.685c.078,0,.156.008.234.008a3.461,3.461,0,0,0,3.45-3.231c.343-5.126-1.029-9.362-4.077-12.589-5.584-5.912-14.766-5.892-15.188-5.888,0,0-13.5.186-20.683,10.741-3.124,3.8-6.107,9.161-6.562,20.768a40.639,40.639,0,0,0,7.015,24.2c10.922,16.394,35.156,60.367,24.312,114.45a3.462,3.462,0,0,0,6.789,1.362C84.2,240.778,58.906,194.863,47.505,177.75a33.763,33.763,0,0,1-5.858-20.094,32.422,32.422,0,0,1,.308-3.29c1.836,7.889,6.266,18.148,16.344,29.328a3.457,3.457,0,0,0,3.151,1.094l10-1.7a47.681,47.681,0,0,1,9.81,13.673.24.24,0,0,1-.013.234l-2.545,3.779c-.687-1.222-1.429-2.512-2.218-3.837a3.462,3.462,0,1,0-5.949,3.541c3.471,5.832,6.136,11.179,6.489,11.893,1.653,3.887,3.973,9.655,5.723,15.236a11.094,11.094,0,0,0,9.269,7.7,3.472,3.472,0,0,1,2.775,2.05,58.414,58.414,0,0,1,4.533,24.977,2.6,2.6,0,0,1-1.322,2.121l-1.055.606a114.633,114.633,0,0,0-2.844-15.576,3.462,3.462,0,1,0-6.692,1.775,127.992,127.992,0,0,1,3.445,24.05,174.976,174.976,0,0,1-.409,18.747,3.462,3.462,0,0,0,3.189,3.714c.089.006.178.009.266.009a3.461,3.461,0,0,0,3.448-3.2,181.919,181.919,0,0,0,.426-19.5,4.094,4.094,0,0,1,2.052-3.692l1.624-.933a9.457,9.457,0,0,0,4.79-7.85,65.476,65.476,0,0,0-5.093-27.991A10.434,10.434,0,0,0,92.8,228.43a4.148,4.148,0,0,1-3.439-2.893c-1.846-5.887-4.278-11.928-5.994-15.958a4.075,4.075,0,0,1,.379-3.885l3.251-4.83a7.182,7.182,0,0,0,.509-7.1,53.213,53.213,0,0,0-12.143-16.48,4.941,4.941,0,0,0-4.127-1.174l-9.04,1.535a72.434,72.434,0,0,1-7.736-10.722,26.951,26.951,0,0,0,16.139,4.374c9.359-.036,17.1-3.433,23.012-10.1,9.348-10.543,10.513-26.6,2.832-39.045-16.474-26.7-49.024-18.206-49.387-18.108-18.275,5.18-30.966,16.566-36.7,32.924a55.569,55.569,0,0,0,2.031,41.485A199.382,199.382,0,0,1,26.679,224.351Z"/><path d="M217.942,235.25a3.464,3.464,0,0,0-3.646,3.266q-.055,1.007-.162,2.034a3.461,3.461,0,1,0,6.885.723q.126-1.2.19-2.376A3.462,3.462,0,0,0,217.942,235.25Z"/><path d="M200.791,232.266a7.914,7.914,0,0,0-7.411-.406,27.2,27.2,0,0,0-9.046,7.279,22.729,22.729,0,0,0-5.816,13.1,10.089,10.089,0,0,0,3.824,8.9,8.8,8.8,0,0,0,5.361,1.842,9.065,9.065,0,0,0,3.084-.55,22.483,22.483,0,0,0,8.36-5.816,22.064,22.064,0,0,0,5.906-17.219A8.976,8.976,0,0,0,200.791,232.266Zm-6.64,19.558a15.779,15.779,0,0,1-5.717,4.1,1.921,1.921,0,0,1-1.9-.288,3.208,3.208,0,0,1-1.118-2.85,15.983,15.983,0,0,1,4.167-9.134c2.3-2.678,6.146-7.445,7.985-4.708C200.259,242.939,197.141,248.707,194.151,251.824Z"/><path d="M233.864,188.144a7.113,7.113,0,0,0,1.037-.075,16.039,16.039,0,0,0,6.7-2.86A15.764,15.764,0,0,0,248.217,174a7.119,7.119,0,0,0-2.19-6.215,6.4,6.4,0,0,0-5.8-1.524h0a19.143,19.143,0,0,0-7.3,3.74A16.2,16.2,0,0,0,227,178.343a7.848,7.848,0,0,0,1.544,7.378A7.051,7.051,0,0,0,233.864,188.144Zm-.214-7.888a9.471,9.471,0,0,1,3.515-4.779,13.313,13.313,0,0,1,4.185-2.352,8.81,8.81,0,0,1-3.686,6.386,9.5,9.5,0,0,1-3.764,1.708.119.119,0,0,1-.145-.053A.994.994,0,0,1,233.65,180.256Z"/><path d="M59.19,54.961A14.323,14.323,0,1,0,73.512,40.638,14.339,14.339,0,0,0,59.19,54.961Zm21.722,0a7.4,7.4,0,1,1-7.4-7.4A7.408,7.408,0,0,1,80.912,54.961Z"/><path d="M222.714,108.6a13.1,13.1,0,1,0-13.095,13.1A13.11,13.11,0,0,0,222.714,108.6Zm-19.267,0a6.172,6.172,0,1,1,6.172,6.172A6.179,6.179,0,0,1,203.447,108.6Z"/><path d="M276.526,119.891a3.459,3.459,0,0,0-4.412,2.122l-1.3,3.713a3.461,3.461,0,0,0,2.123,4.411,3.425,3.425,0,0,0,1.145.2,3.464,3.464,0,0,0,3.267-2.318l1.3-3.712A3.462,3.462,0,0,0,276.526,119.891Z"/><path d="M138.294,245.547a3.465,3.465,0,0,0-4.512.33c-3.594,3.594-11.506,4.4-14.251,4.411a3.462,3.462,0,0,0,0,6.924c1.162,0,10.54-.144,16.987-4.645a38.53,38.53,0,0,0,14.084,4.39,3.461,3.461,0,0,0,.779-6.879A29.865,29.865,0,0,1,138.294,245.547Z"/><circle cx="126.225" cy="134.118" r="3.699"/></svg>